<svg xmlns="http://www.w3.org/2000/svg" width="47" height="47" viewBox="0 0 47 47" fill="none">
            <path d="M5.875 15.667H37.925C39.0451 15.667 39.6052 15.667 40.033 15.885C40.4093 16.0767 40.7153 16.3827 40.907 16.759C41.125 17.1868 41.125 17.7469 41.125 18.867V35.967C41.125 37.0871 41.125 37.6472 40.907 38.075C40.7153 38.4513 40.4093 38.7573 40.033 38.949C39.6052 39.167 39.0451 39.167 37.925 39.167H9.075C7.9549 39.167 7.39484 39.167 6.96702 38.949C6.59069 38.7573 6.28473 38.4513 6.09299 38.075C5.875 37.6472 5.875 37.0871 5.875 35.967V15.667Z" fill="#18B0C9" fill-opacity="0.5"/>
            <path d="M5.875 13.792C5.875 11.9064 5.875 10.9636 6.46079 10.3778C7.04657 9.79199 7.98938 9.79199 9.875 9.79199H17.9265C18.744 9.79199 19.1527 9.79199 19.5203 9.94423C19.8878 10.0965 20.1768 10.3855 20.7549 10.9636L25.4583 15.667H5.875V13.792Z" fill="#18B0C9" fill-opacity="0.5"/>
            <path d="M17 33L30 20M30 33L17 20" stroke="#18B0C9" stroke-width="3"/>
        </svg>
