<svg width="152" height="158" viewBox="0 0 152 158" fill="none" xmlns="http://www.w3.org/2000/svg">
<mask id="path-1-inside-1_252_1567" fill="white">
<path d="M25 34C25 32.8954 25.8954 32 27 32H120C122.209 32 124 33.7909 124 36V129C124 130.105 123.105 131 122 131H27C25.8954 131 25 130.105 25 129V34Z"/>
</mask>
<path d="M25 34C25 32.8954 25.8954 32 27 32H120C122.209 32 124 33.7909 124 36V129C124 130.105 123.105 131 122 131H27C25.8954 131 25 130.105 25 129V34Z" stroke="#7B7B7B" stroke-width="14" mask="url(#path-1-inside-1_252_1567)"/>
<path d="M53 39V10" stroke="#7B7B7B" stroke-width="7"/>
<path d="M53 153V124" stroke="#7B7B7B" stroke-width="7"/>
<path d="M96 153V124" stroke="#7B7B7B" stroke-width="7"/>
<path d="M146 103L117 103" stroke="#7B7B7B" stroke-width="7"/>
<path d="M32 103L3 103" stroke="#7B7B7B" stroke-width="7"/>
<path d="M32 60L3 60" stroke="#7B7B7B" stroke-width="7"/>
<path d="M96.5 13.5C102.541 13.5 108.522 14.6898 114.103 17.0015C119.684 19.3133 124.755 22.7016 129.027 26.9731C133.298 31.2446 136.687 36.3156 138.998 41.8966C141.31 47.4775 142.5 53.4592 142.5 59.5" stroke="#7B7B7B" stroke-width="7"/>
<path d="M52.8 96L65.4 68H70.52L83.16 96H77.72L66.88 70.76H68.96L58.16 96H52.8ZM58.6 89.52L60 85.44H75.12L76.52 89.52H58.6ZM86.7209 96V68H91.9209V96H86.7209Z" fill="#7B7B7B"/>
</svg>
