<svg xmlns="http://www.w3.org/2000/svg" width="118" height="119" viewBox="0 0 118 119" fill="#7E869E">
<path d="M14.75 39.667H100.05C101.17 39.667 101.73 39.667 102.158 39.885C102.534 40.0767 102.84 40.3827 103.032 40.759C103.25 41.1868 103.25 41.7469 103.25 42.867V95.967C103.25 97.0871 103.25 97.6472 103.032 98.075C102.84 98.4513 102.534 98.7573 102.158 98.949C101.73 99.167 101.17 99.167 100.05 99.167H17.95C16.8299 99.167 16.2698 99.167 15.842 98.949C15.4657 98.7573 15.1597 98.4513 14.968 98.075C14.75 97.6472 14.75 97.0871 14.75 95.967V39.667Z" fill="#7E869E"/>
<path d="M14.75 28.792C14.75 26.9064 14.75 25.9636 15.3358 25.3778C15.9216 24.792 16.8644 24.792 18.75 24.792H47.4999C48.3222 24.792 48.7333 24.792 49.1026 24.9459C49.4718 25.0997 49.7613 25.3916 50.3403 25.9755L63.9167 39.667H14.75V28.792Z" fill="#7E869E"/>
<path d="M44.25 66.9372L53.9768 76.7464C54.0355 76.8056 54.1312 76.8056 54.1898 76.7464L73.75 57.0205" stroke="#18B0C9" stroke-width="7"/>
</svg>
