<svg xmlns="http://www.w3.org/2000/svg" width="47" height="47" viewBox="0 0 47 47" fill="#F6F6F6" >
            <path d="M7.83325 13.792C7.83325 11.9064 7.83325 10.9636 8.41904 10.3778C9.00482 9.79199 9.94763 9.79199 11.8333 9.79199H17.9264C18.7439 9.79199 19.1526 9.79199 19.5202 9.94423C19.8877 10.0965 20.1768 10.3855 20.7548 10.9636L24.2867 14.4954C24.8647 15.0735 25.1538 15.3625 25.5213 15.5148C25.8889 15.667 26.2976 15.667 27.1151 15.667H35.1666C37.0522 15.667 37.995 15.667 38.5808 16.2528C39.1666 16.8386 39.1666 17.7814 39.1666 19.667V33.2087C39.1666 35.0943 39.1666 36.0371 38.5808 36.6229C37.995 37.2087 37.0522 37.2087 35.1666 37.2087H11.8333C9.94763 37.2087 9.00482 37.2087 8.41904 36.6229C7.83325 36.0371 7.83325 35.0943 7.83325 33.2087V13.792Z" stroke="#18B0C9" stroke-width="2"/>
        </svg>
