
    <svg
      width="809"
      height="460"
      viewBox="0 0 809 460"
      fill="none"
      xmlns="http://www.w3.org/2000/svg"
    >
      <rect width="809" height="460" rx="25" fill="white" />
      <path
        d="M393.345 87.1201C398.683 83.9623 405.317 83.9623 410.655 87.1201L466.5 120.155L523.084 151.815C528.52 154.857 531.857 160.628 531.782 166.856L531 231.5L531.782 296.144C531.857 302.372 528.52 308.143 523.084 311.185L466.5 342.845L410.655 375.88C405.317 379.038 398.683 379.038 393.345 375.88L337.5 342.845L280.916 311.185C275.48 308.143 272.143 302.372 272.218 296.144L273 231.5L272.218 166.856C272.143 160.628 275.48 154.857 280.916 151.815L337.5 120.155L393.345 87.1201Z"
        fill="#F6F6F6"
      />
      <path
        d="M464.718 123.168L464.754 123.189L464.791 123.21L521.375 154.869C525.692 157.285 528.342 161.868 528.282 166.814L527.5 231.458L527.5 231.5L527.5 231.542L528.282 296.186C528.342 301.132 525.692 305.715 521.375 308.131L464.791 339.79L464.754 339.811L464.718 339.832L408.873 372.867C404.634 375.375 399.366 375.375 395.127 372.867L339.282 339.832L339.246 339.811L339.209 339.79L282.625 308.131C278.308 305.715 275.658 301.132 275.718 296.186L276.5 231.542L276.5 231.5L276.5 231.458L275.718 166.814C275.658 161.868 278.308 157.285 282.625 154.869L339.209 123.21L339.246 123.189L339.282 123.168L395.127 90.1325L393.345 87.1201L395.127 90.1325C399.366 87.6248 404.634 87.6248 408.873 90.1325L464.718 123.168Z"
        stroke="#18B0C9"
        stroke-opacity="0.5"
        stroke-width="7"
      />
      <path
        d="M516.879 107.072C522.2 103.942 528.8 103.942 534.121 107.072L550.225 116.547L566.441 125.572C571.897 128.608 575.249 134.39 575.173 140.633L574.95 159L575.173 177.367C575.249 183.61 571.897 189.392 566.441 192.428L550.225 201.453L534.121 210.928C528.8 214.058 522.2 214.058 516.879 210.928L500.775 201.453L484.559 192.428C479.103 189.392 475.751 183.61 475.827 177.367L476.05 159L475.827 140.633C475.751 134.39 479.103 128.608 484.559 125.572L500.775 116.547L516.879 107.072Z"
        fill="#F6F6F6"
      />
      <path
        d="M548.45 119.564L548.486 119.585L548.523 119.606L564.739 128.63C569.072 131.041 571.734 135.633 571.674 140.591L571.45 158.957L571.45 159L571.45 159.043L571.674 177.409C571.734 182.367 569.072 186.959 564.739 189.37L548.523 198.394L548.486 198.415L548.45 198.436L532.346 207.911C528.121 210.397 522.879 210.397 518.654 207.911L502.55 198.436L502.514 198.415L502.477 198.394L486.261 189.37C481.928 186.959 479.266 182.367 479.326 177.409L479.55 159.043L479.55 159L479.55 158.957L479.326 140.591C479.266 135.633 481.928 131.041 486.261 128.63L502.477 119.606L502.514 119.585L502.55 119.564L518.654 110.089C522.879 107.603 528.121 107.603 532.346 110.089L548.45 119.564Z"
        stroke="#18B0C9"
        stroke-opacity="0.5"
        stroke-width="7"
      />
      <path
        d="M395.879 37.0722C401.2 33.9416 407.8 33.9416 413.121 37.0722L429.225 46.5474L445.441 55.572C450.897 58.6081 454.249 64.3903 454.173 70.6333L453.95 89L454.173 107.367C454.249 113.61 450.897 119.392 445.441 122.428L429.225 131.453L413.121 140.928C407.8 144.058 401.2 144.058 395.879 140.928L379.775 131.453L363.559 122.428C358.103 119.392 354.751 113.61 354.827 107.367L355.05 89L354.827 70.6333C354.751 64.3903 358.103 58.6081 363.559 55.572L379.775 46.5474L395.879 37.0722Z"
        fill="#F6F6F6"
      />
      <path
        d="M427.45 49.564L427.486 49.5853L427.523 49.6057L443.739 58.6303C448.072 61.0413 450.734 65.6331 450.674 70.5908L450.45 88.9575L450.45 89L450.45 89.0425L450.674 107.409C450.734 112.367 448.072 116.959 443.739 119.37L427.523 128.394L427.486 128.415L427.45 128.436L411.346 137.911C407.121 140.397 401.879 140.397 397.654 137.911L381.55 128.436L381.514 128.415L381.477 128.394L365.261 119.37C360.928 116.959 358.266 112.367 358.326 107.409L358.55 89.0425L358.55 89L358.55 88.9575L358.326 70.5907C358.266 65.6331 360.928 61.0413 365.261 58.6303L381.477 49.6057L381.514 49.5853L381.55 49.564L397.654 40.0888C401.879 37.6027 407.121 37.6027 411.346 40.0888L427.45 49.564Z"
        stroke="#18B0C9"
        stroke-opacity="0.5"
        stroke-width="7"
      />
      <path
        d="M273.879 107.072C279.2 103.942 285.8 103.942 291.121 107.072L307.225 116.547L323.441 125.572C328.897 128.608 332.249 134.39 332.173 140.633L331.95 159L332.173 177.367C332.249 183.61 328.897 189.392 323.441 192.428L307.225 201.453L291.121 210.928C285.8 214.058 279.2 214.058 273.879 210.928L257.775 201.453L241.559 192.428C236.103 189.392 232.751 183.61 232.827 177.367L233.05 159L232.827 140.633C232.751 134.39 236.103 128.608 241.559 125.572L257.775 116.547L273.879 107.072Z"
        fill="#F6F6F6"
      />
      <path
        d="M305.45 119.564L305.486 119.585L305.523 119.606L321.739 128.63C326.072 131.041 328.734 135.633 328.674 140.591L328.45 158.957L328.45 159L328.45 159.043L328.674 177.409C328.734 182.367 326.072 186.959 321.739 189.37L305.523 198.394L305.486 198.415L305.45 198.436L289.346 207.911C285.121 210.397 279.879 210.397 275.654 207.911L259.55 198.436L259.514 198.415L259.477 198.394L243.261 189.37C238.928 186.959 236.266 182.367 236.326 177.409L236.55 159.043L236.55 159L236.55 158.957L236.326 140.591C236.266 135.633 238.928 131.041 243.261 128.63L259.477 119.606L259.514 119.585L259.55 119.564L275.654 110.089C279.879 107.603 285.121 107.603 289.346 110.089L305.45 119.564Z"
        stroke="#18B0C9"
        stroke-opacity="0.5"
        stroke-width="7"
      />
      <path
        fill-rule="evenodd"
        clip-rule="evenodd"
        d="M408.85 67.108C409.135 67.3654 409.179 67.7919 409.267 68.6448L409.661 72.4518C409.827 74.0546 409.91 74.856 410.456 75.0857C411.002 75.3154 411.632 74.8143 412.894 73.8122L416.104 71.2632C416.759 70.7427 417.087 70.4824 417.463 70.5011C417.84 70.5198 418.14 70.8113 418.741 71.3943L422.608 75.1484C423.243 75.7641 423.56 76.072 423.579 76.4653C423.599 76.8586 423.314 77.1966 422.744 77.8725L420.216 80.8719C419.135 82.1549 418.594 82.7964 418.823 83.3567C419.053 83.917 419.888 83.9954 421.559 84.1521L425.596 84.5309C426.457 84.6117 426.888 84.6521 427.148 84.9383C427.409 85.2245 427.409 85.6571 427.409 86.5222V91.4781C427.409 92.3431 427.409 92.7757 427.148 93.0619C426.888 93.3481 426.457 93.3885 425.596 93.4693L421.56 93.848C419.889 94.0048 419.054 94.0832 418.824 94.6435C418.595 95.2038 419.136 95.8453 420.217 97.1283L422.745 100.127C423.314 100.803 423.599 101.141 423.58 101.534C423.56 101.927 423.243 102.235 422.608 102.851L418.741 106.605C418.14 107.188 417.84 107.479 417.464 107.498C417.087 107.517 416.759 107.257 416.104 106.736L412.894 104.187C411.633 103.185 411.002 102.684 410.456 102.914C409.91 103.143 409.827 103.945 409.661 105.547L409.267 109.355C409.179 110.208 409.135 110.635 408.85 110.892C408.564 111.15 408.135 111.15 407.278 111.15H401.722C400.864 111.15 400.436 111.15 400.15 110.892C399.865 110.635 399.821 110.208 399.733 109.355L399.346 105.618C399.18 104.015 399.097 103.214 398.551 102.984C398.005 102.755 397.375 103.256 396.113 104.258L392.991 106.737C392.336 107.258 392.008 107.518 391.632 107.499C391.255 107.48 390.955 107.189 390.354 106.606L386.487 102.852C385.852 102.236 385.535 101.928 385.516 101.535C385.496 101.142 385.781 100.804 386.35 100.128L388.872 97.1366C389.953 95.8536 390.494 95.2122 390.264 94.6518C390.035 94.0915 389.2 94.0131 387.529 93.8564H387.529L383.404 93.4693C382.543 93.3885 382.112 93.3481 381.851 93.0619C381.591 92.7757 381.591 92.3431 381.591 91.4781L381.591 86.5222C381.591 85.6571 381.591 85.2245 381.851 84.9383C382.112 84.6521 382.543 84.6117 383.404 84.5309L387.53 84.1438H387.53C389.201 83.987 390.036 83.9086 390.265 83.3483C390.495 82.788 389.954 82.1465 388.873 80.8635L386.351 77.8715C385.781 77.1956 385.496 76.8577 385.516 76.4644C385.535 76.071 385.852 75.7632 386.487 75.1475L386.487 75.1475L390.354 71.3933C390.955 70.8104 391.255 70.5189 391.632 70.5002C392.008 70.4815 392.336 70.7417 392.991 71.2623L396.113 73.7414C397.375 74.7436 398.006 75.2446 398.551 75.0149C399.097 74.7852 399.18 73.9838 399.346 72.3811V72.381L399.733 68.6448C399.821 67.7919 399.865 67.3654 400.15 67.108C400.436 66.8506 400.864 66.8506 401.722 66.8506H407.278C408.135 66.8506 408.564 66.8506 408.85 67.108ZM404.5 100.495C411.142 100.495 416.527 95.3488 416.527 89.0001C416.527 82.6514 411.142 77.5048 404.5 77.5048C397.857 77.5048 392.473 82.6514 392.473 89.0001C392.473 95.3488 397.857 100.495 404.5 100.495Z"
        fill="#7B7B7B"
      />
      <rect
        x="509.25"
        y="141"
        width="31.5"
        height="38.25"
        rx="2"
        stroke="#7B7B7B"
        stroke-width="7"
      />
      <path
        d="M518.25 152.25H531.75"
        stroke="#7B7B7B"
        stroke-width="7"
        stroke-linecap="round"
      />
      <path
        d="M518.25 161.25H531.75"
        stroke="#7B7B7B"
        stroke-width="7"
        stroke-linecap="round"
      />
      <path
        d="M518.25 170.25H527.25"
        stroke="#7B7B7B"
        stroke-width="7"
        stroke-linecap="round"
      />
      <path
        d="M395.302 318.334C400.651 315.159 407.306 315.159 412.655 318.334L428.664 327.835L444.897 336.948C450.321 339.993 453.649 345.757 453.574 351.977L453.35 370.592L453.574 389.207C453.649 395.426 450.321 401.19 444.897 404.235L428.664 413.348L412.655 422.85C407.306 426.025 400.651 426.025 395.302 422.85L379.293 413.348L363.06 404.235C357.636 401.19 354.308 395.426 354.383 389.207L354.607 370.592L354.383 351.977C354.308 345.757 357.636 339.993 363.06 336.948L379.293 327.835L395.302 318.334Z"
        fill="#F6F6F6"
      />
      <path
        d="M426.878 330.845L426.914 330.867L426.951 330.887L443.184 340C447.491 342.418 450.134 346.996 450.074 351.935L449.85 370.55L449.849 370.592L449.85 370.634L450.074 389.249C450.134 394.188 447.491 398.765 443.184 401.183L426.951 410.297L426.914 410.317L426.878 410.339L410.869 419.84C406.621 422.362 401.336 422.362 397.088 419.84L381.079 410.339L381.043 410.317L381.006 410.297L364.773 401.183C360.466 398.765 357.823 394.188 357.883 389.249L358.107 370.634L358.108 370.592L358.107 370.55L357.883 351.935C357.823 346.996 360.466 342.418 364.773 340L381.006 330.887L381.043 330.867L381.079 330.845L397.088 321.343C401.336 318.822 406.621 318.822 410.869 321.343L426.878 330.845Z"
        stroke="#18B0C9"
        stroke-opacity="0.5"
        stroke-width="7"
      />
      <path
        d="M402.19 388.552L403.755 385.421V385.421L402.19 388.552ZM405.767 388.552L407.333 391.682L405.767 388.552ZM407.063 387.904L408.628 391.035L407.063 387.904ZM408.004 387.282L410.932 389.199L408.004 387.282ZM399.756 386.116L396.261 386.299L399.756 386.116ZM400.894 387.904L402.459 384.774L400.894 387.904ZM399.953 387.282L402.882 385.365L399.953 387.282ZM397.736 377.711L394.539 379.136L397.736 377.711ZM397.477 377.225L400.155 374.972L397.477 377.225ZM410.977 376.844L409.026 373.939L410.977 376.844ZM410.48 377.225L413.158 379.479L410.48 377.225ZM413.048 366.402C413.048 369.538 411.459 372.305 409.026 373.939L412.929 379.75C417.215 376.871 420.048 371.968 420.048 366.402H413.048ZM403.978 357.332C408.988 357.332 413.048 361.393 413.048 366.402H420.048C420.048 357.527 412.854 350.332 403.978 350.332V357.332ZM394.909 366.402C394.909 361.393 398.969 357.332 403.978 357.332V350.332C395.103 350.332 387.909 357.527 387.909 366.402H394.909ZM398.931 373.939C396.498 372.305 394.909 369.538 394.909 366.402H387.909C387.909 371.968 390.742 376.871 395.028 379.75L398.931 373.939ZM403.252 385.933C403.077 382.598 402.29 379.328 400.932 376.285L394.539 379.136C395.547 381.395 396.132 383.823 396.261 386.299L403.252 385.933ZM403.755 385.421L402.459 384.774L399.329 391.035L400.624 391.682L403.755 385.421ZM404.202 385.421C404.061 385.492 403.896 385.492 403.755 385.421L400.624 391.682C402.736 392.738 405.221 392.738 407.333 391.682L404.202 385.421ZM405.498 384.774L404.202 385.421L407.333 391.682L408.628 391.035L405.498 384.774ZM407.025 376.285C405.667 379.328 404.88 382.598 404.705 385.933L411.696 386.299C411.825 383.823 412.41 381.395 413.418 379.136L407.025 376.285ZM408.628 391.035C408.832 390.933 409.207 390.749 409.533 390.545C409.916 390.306 410.477 389.894 410.932 389.199L405.075 385.365C405.382 384.896 405.737 384.663 405.819 384.612C405.853 384.591 405.856 384.591 405.789 384.626C405.722 384.661 405.638 384.703 405.498 384.774L408.628 391.035ZM404.705 385.933C404.697 386.099 404.691 386.203 404.685 386.287C404.679 386.371 404.677 386.38 404.681 386.349C404.69 386.291 404.753 385.856 405.075 385.365L410.932 389.199C411.402 388.481 411.548 387.777 411.609 387.349C411.664 386.969 411.683 386.547 411.696 386.299L404.705 385.933ZM396.261 386.299C396.274 386.547 396.293 386.969 396.347 387.349C396.409 387.777 396.555 388.481 397.025 389.199L402.882 385.365C403.204 385.856 403.267 386.291 403.276 386.349C403.28 386.38 403.277 386.371 403.272 386.287C403.266 386.203 403.26 386.099 403.252 385.933L396.261 386.299ZM402.459 384.774C402.319 384.703 402.235 384.661 402.168 384.626C402.101 384.591 402.104 384.591 402.138 384.612C402.22 384.663 402.575 384.896 402.882 385.365L397.025 389.199C397.48 389.894 398.041 390.306 398.424 390.545C398.75 390.749 399.125 390.933 399.329 391.035L402.459 384.774ZM395.028 379.75C395.1 379.798 395.144 379.828 395.18 379.852C395.215 379.876 395.217 379.879 395.203 379.868C395.179 379.85 394.998 379.716 394.799 379.479L400.155 374.972C399.667 374.392 399.005 373.989 398.931 373.939L395.028 379.75ZM400.932 376.285C400.894 376.199 400.634 375.541 400.155 374.972L394.799 379.479C394.716 379.381 394.648 379.285 394.592 379.198C394.538 379.114 394.503 379.049 394.488 379.018C394.473 378.99 394.469 378.979 394.481 379.006C394.493 379.033 394.509 379.068 394.539 379.136L400.932 376.285ZM409.026 373.939C408.952 373.989 408.29 374.392 407.802 374.972L413.158 379.479C412.959 379.716 412.778 379.85 412.753 379.868C412.74 379.879 412.742 379.876 412.777 379.852C412.813 379.828 412.857 379.798 412.929 379.75L409.026 373.939ZM413.418 379.136C413.448 379.068 413.464 379.033 413.476 379.005C413.488 378.979 413.484 378.99 413.469 379.018C413.453 379.049 413.419 379.114 413.365 379.198C413.309 379.285 413.24 379.381 413.158 379.479L407.802 374.972C407.323 375.541 407.063 376.199 407.025 376.285L413.418 379.136Z"
        fill="#7B7B7B"
      />
      <path
        d="M410.247 378.972V378.972C406.453 381.508 401.505 381.508 397.71 378.972V378.972"
        stroke="#7B7B7B"
        stroke-width="7"
      />
      <path
        d="M517.915 248.543C523.264 245.369 529.92 245.369 535.269 248.543L551.277 258.045L567.51 267.158C572.934 270.203 576.262 275.967 576.187 282.187L575.963 300.802L576.187 319.417C576.262 325.636 572.934 331.4 567.51 334.445L551.277 343.558L535.269 353.06C529.92 356.235 523.264 356.235 517.915 353.06L501.906 343.558L485.673 334.445C480.249 331.4 476.921 325.636 476.996 319.417L477.221 300.802L476.996 282.187C476.921 275.967 480.249 270.203 485.673 267.158L501.906 258.045L517.915 248.543Z"
        fill="#F6F6F6"
      />
      <path
        d="M549.491 261.055L549.527 261.076L549.564 261.097L565.797 270.21C570.104 272.628 572.747 277.206 572.688 282.145L572.463 300.76L572.463 300.802L572.463 300.844L572.688 319.459C572.747 324.398 570.104 328.975 565.797 331.393L549.564 340.506L549.527 340.527L549.491 340.549L533.482 350.05C529.235 352.571 523.949 352.571 519.701 350.05L503.693 340.549L503.656 340.527L503.62 340.506L487.387 331.393C483.079 328.975 480.437 324.398 480.496 319.459L480.72 300.844L480.721 300.802L480.72 300.76L480.496 282.145C480.437 277.206 483.079 272.628 487.387 270.21L503.62 261.097L503.656 261.076L503.693 261.055L519.701 251.553C523.949 249.032 529.235 249.032 533.482 251.553L549.491 261.055Z"
        stroke="#18B0C9"
        stroke-opacity="0.5"
        stroke-width="7"
      />
      <path
        d="M273.731 248.543C279.08 245.369 285.736 245.369 291.085 248.543L307.094 258.045L323.327 267.158C328.751 270.203 332.079 275.967 332.004 282.187L331.779 300.802L332.004 319.417C332.079 325.636 328.751 331.4 323.327 334.445L307.094 343.558L291.085 353.06C285.736 356.235 279.08 356.235 273.731 353.06L257.723 343.558L241.49 334.445C236.066 331.4 232.738 325.636 232.813 319.417L233.037 300.802L232.813 282.187C232.738 275.967 236.066 270.203 241.49 267.158L257.723 258.045L273.731 248.543Z"
        fill="#F6F6F6"
      />
      <path
        d="M305.307 261.055L305.344 261.076L305.38 261.097L321.614 270.21C325.921 272.628 328.563 277.206 328.504 282.145L328.28 300.76L328.279 300.802L328.28 300.844L328.504 319.459C328.563 324.398 325.921 328.975 321.614 331.393L305.38 340.506L305.344 340.527L305.307 340.549L289.299 350.05C285.051 352.571 279.766 352.571 275.518 350.05L259.509 340.549L259.473 340.527L259.436 340.506L243.203 331.393C238.896 328.975 236.253 324.398 236.313 319.459L236.537 300.844L236.537 300.802L236.537 300.76L236.313 282.145C236.253 277.206 238.896 272.628 243.203 270.21L259.436 261.097L259.473 261.076L259.509 261.055L275.518 251.553C279.766 249.032 285.051 249.032 289.299 251.553L305.307 261.055Z"
        stroke="#18B0C9"
        stroke-opacity="0.5"
        stroke-width="7"
      />
      <path
        d="M268.082 286.476C264.768 289.79 262.705 294.151 262.246 298.816C261.787 303.481 262.959 308.16 265.563 312.057C268.167 315.955 272.042 318.828 276.527 320.189C281.012 321.55 285.831 321.313 290.161 319.519C294.492 317.726 298.066 314.486 300.276 310.352C302.485 306.218 303.193 301.446 302.279 296.849C301.364 292.252 298.884 288.114 295.261 285.141C291.638 282.167 287.095 280.542 282.408 280.542"
        stroke="#7B7B7B"
        stroke-width="7"
        stroke-linecap="round"
      />
      <path
        d="M282.408 300.801L269.838 288.231"
        stroke="#7B7B7B"
        stroke-width="7"
        stroke-linecap="round"
      />
      <path
        d="M282.408 281.947V286.137"
        stroke="#7B7B7B"
        stroke-width="7"
        stroke-linecap="round"
      />
      <path
        d="M301.263 300.802L297.073 300.802"
        stroke="#7B7B7B"
        stroke-width="7"
        stroke-linecap="round"
      />
      <path
        d="M282.408 315.467V319.657"
        stroke="#7B7B7B"
        stroke-width="7"
        stroke-linecap="round"
      />
      <path
        d="M267.743 300.802L263.553 300.802"
        stroke="#7B7B7B"
        stroke-width="7"
        stroke-linecap="round"
      />
      <path
        d="M282.714 176.555L284.881 179.155C283.212 180.546 280.788 180.546 279.119 179.155L268.078 169.955C266.228 168.412 265.032 166.225 264.733 163.835L262.87 148.931C262.622 146.941 263.72 145.027 265.563 144.237M282.714 176.555L265.563 144.237M282.714 176.555L284.881 179.155L295.922 169.955C297.772 168.412 298.968 166.225 299.267 163.835L301.13 148.931C301.378 146.941 300.28 145.027 298.437 144.237L283.773 137.952M282.714 176.555L283.773 137.952M265.563 144.237L280.227 137.952C281.359 137.467 282.641 137.467 283.773 137.952M265.563 144.237L283.773 137.952"
        stroke="#7B7B7B"
        stroke-width="7"
        stroke-linecap="round"
      />
      <path
        d="M275.25 159L281.569 165.319C281.792 165.542 282.163 165.505 282.338 165.243L291 152.25"
        stroke="#7B7B7B"
        stroke-width="7"
        stroke-linecap="round"
      />
      <path
        d="M521.929 290.571L545.072 290.571"
        stroke="#7B7B7B"
        stroke-width="7"
        stroke-linecap="round"
      />
      <path
        d="M504.571 311.143L529.643 311.143"
        stroke="#7B7B7B"
        stroke-width="7"
        stroke-linecap="round"
      />
      <circle
        cx="511.964"
        cy="290.893"
        r="7.39286"
        transform="rotate(90 511.964 290.893)"
        stroke="#7B7B7B"
        stroke-width="7"
        stroke-linecap="round"
      />
      <ellipse
        cx="537.357"
        cy="311.143"
        rx="7.71429"
        ry="7.71428"
        transform="rotate(90 537.357 311.143)"
        stroke="#7B7B7B"
        stroke-width="7"
        stroke-linecap="round"
      />
      <mask id="path-35-inside-1_252_1844" fill="white">
        <path d="M349 180C349 178.895 349.895 178 351 178H444C446.209 178 448 179.791 448 182V275C448 276.105 447.105 277 446 277H351C349.895 277 349 276.105 349 275V180Z" />
      </mask>
      <path
        d="M349 180C349 178.895 349.895 178 351 178H444C446.209 178 448 179.791 448 182V275C448 276.105 447.105 277 446 277H351C349.895 277 349 276.105 349 275V180Z"
        stroke="#7B7B7B"
        stroke-width="14"
        mask="url(#path-35-inside-1_252_1844)"
      />
      <path d="M377 185V156" stroke="#7B7B7B" stroke-width="7" />
      <path d="M377 299V270" stroke="#7B7B7B" stroke-width="7" />
      <path d="M420 299V270" stroke="#7B7B7B" stroke-width="7" />
      <path d="M470 249L441 249" stroke="#7B7B7B" stroke-width="7" />
      <path d="M356 249L327 249" stroke="#7B7B7B" stroke-width="7" />
      <path d="M356 206L327 206" stroke="#7B7B7B" stroke-width="7" />
      <path
        d="M420.5 159.5C426.541 159.5 432.522 160.69 438.103 163.002C443.684 165.313 448.755 168.702 453.027 172.973C457.298 177.245 460.687 182.316 462.998 187.897C465.31 193.478 466.5 199.459 466.5 205.5"
        stroke="#7B7B7B"
        stroke-width="7"
      />
      <path
        d="M376.8 242L389.4 214H394.52L407.16 242H401.72L390.88 216.76H392.96L382.16 242H376.8ZM382.6 235.52L384 231.44H399.12L400.52 235.52H382.6ZM410.721 242V214H415.921V242H410.721Z"
        fill="#7B7B7B"
      />
    </svg>